<svg version="1.2" xmlns="http://www.w3.org/2000/svg" viewBox="0 0 1540 1396" width="1540" height="1396">
	<title>d-logo-black-svg</title>
	<style>
		.s0 { fill: #f7bb82 } 
		.s1 { fill: #f4a051 } 
		.s2 { fill: #ed7100 } 
	</style>
	<g id="그룹 13248">
		<g id="그룹 13248">
			<path id="패스 1" fill-rule="evenodd" class="s0" d="m1049.1 1174.7c-293.1-2.6-549.3-186.9-572.3-411.7-23-224.8 196-405.3 489-402.9 293.1 2.5 549.3 186.7 572.3 411.6 23.1 225.1-195.9 405.7-489 403zm16.8-127.5c254.7 2 444.8-143.6 424.8-324.8-19.9-181.2-242.6-329.8-497.2-331.8-254.6-2-444.8 143.6-424.9 325 20 181.2 242.6 329.6 497.3 331.6z"/>
			<path id="패스 2" fill-rule="evenodd" class="s1" d="m1162.4 652c164.4 157.3 161.4 426.8-6.3 602-167.6 175.2-437.1 189.8-601.4 32.5-164.4-157.3-161.7-426.8 6.1-601.9 167.9-175.3 437.1-189.8 601.6-32.6zm-61.3 9.4c-141.4-135.3-373-122.9-517.5 27.9-144.5 150.9-146.9 382.5-5.5 517.8 141.5 135.4 373.2 123 517.6-27.9 144.4-150.6 146.7-382.6 5.4-517.8z"/>
			<path id="패스 3" fill-rule="evenodd" class="s2" d="m1248.3 122c213.7 194.1 134.4 551.2-177.1 797.6-311.6 246.5-737.4 288.9-951 94.9-213.6-193.9-134.3-551.1 177.2-797.6 311.5-246.5 737.3-289 950.9-94.9zm-1096.2 659.6c66.1 252.7 363.1 366.3 663.3 254 300.2-112.3 490.2-408.6 424-661.3-66.1-252.7-363-366.3-663.2-254-300.2 112.6-490.2 408.6-424.1 661.3z"/>
		</g>
	</g>
</svg>